<svg xmlns="http://www.w3.org/2000/svg" id="Слой_1" x="0" y="0" version="1.1" viewBox="0 0 135.1 80" xml:space="preserve">
  <defs/>
  <style>
    .st0{fill:#201600}
  </style>
  <g id="Слой_2">
    <path d="M125.4 36.7c-.3 0-.5.2-.5.4v4.6h-5.7v-4.5c0-.3-.2-.5-.4-.5H117.1c-.3 0-.4.2-.4.5v11.6c0 .2.2.5.4.5h1.6c.3 0 .5-.2.5-.4V44h5.7v4.8c0 .3.2.5.4.5H127c.2 0 .4-.3.4-.5V37.2c0-.2-.2-.5-.4-.5h-1.6zm-12.2-5.2c.3 0 .5.2.5.4v1.5c0 .3-.2.5-.4.5H103.5c-.3 0-.5-.2-.5-.4V32c0-.3.2-.5.5-.5h9.7zm-63 0c-.3 0-.5.2-.5.5v12c0 3.2 1 5.4 5 5.4h.5c5.7 0 6.6-3.8 6.6-5.7 0-1.7-.6-5.8-6.3-5.8h-3.2V34h7.4c.3 0 .5-.2.5-.4V32c0-.3-.2-.5-.5-.5h-9.5zm5.4 8.7c2.3 0 3.6 1.3 3.6 3.4S57.9 47 55.6 47h-.8c-1.8 0-2.5-.7-2.5-2.7v-4.1h3.3zm36.2-3.3c-.2.1-.3.2-.3.4v1.4l.2.3.4.1c1.1-.4 2.3-.6 3.5-.6 2 0 2.4.6 2.4 2v.3l-2.8.2c-4.5.3-4.7 3.2-4.7 4.1 0 2.6 1.4 4.3 4.8 4.3 1.2 0 2.3-.4 3.3-1l.2.5c.1.2.2.3.4.3h.9c.2 0 .4-.2.4-.4v-8.2c0-3-1.6-4.4-4.9-4.4-1.3 0-2.6.3-3.8.7m1.3 8.3c0-.9.2-1.8 2-2l2.8-.3v3.3a5 5 0 01-2.7.8c-.9.3-1.8-.2-2-1.1l-.1-.7M72.5 49c.1.2.2.3.4.3H74c.2 0 .4-.2.4-.4V37.2c0-.3-.2-.5-.4-.5h-1.6c-.3 0-.5.2-.5.4V45.4a5 5 0 01-3.4 1.7c-1.6 0-2.3-.9-2.3-3.1v-6.8c0-.3-.2-.5-.4-.5h-1.6c-.3 0-.5.2-.5.4V44.8c0 2.8 1.5 4.7 4.4 4.7a7 7 0 004.1-1.6l.3 1.1zm39.3 0c.1.2.2.3.4.3h1.1c.2 0 .4-.3.4-.5V37.2c0-.3-.2-.5-.4-.5h-1.6c-.3 0-.5.2-.5.4V45.4c-.9 1-2.2 1.6-3.5 1.7-1.6 0-2.3-.9-2.3-3.1v-6.8c0-.3-.2-.5-.4-.5h-1.6c-.3 0-.5.2-.5.4V44.8c0 2.8 1.5 4.7 4.4 4.7a7 7 0 004.1-1.6l.4 1.1zm-33.4-4.1c-.2 1.7-.6 2.1-2 2.3-.2 0-.4.3-.4.5V49c0 .2.2.5.4.5 2.8 0 4.2-1.3 4.5-4.7l.3-3c.2-2.1.6-2.7 2.5-2.7h2.1v9.8c0 .3.2.5.4.5h1.6c.3 0 .5-.2.5-.5V37.2c0-.3-.2-.5-.5-.5h-4.2c-3.5 0-4.5 2-4.8 4.9l-.4 3.3zM132 36.1c1-.1 2 .5 2.1 1.6v.5a2 2 0 01-2.1 2.1 2 2 0 01-2.1-2.1c0-1.8 1-2.1 2.1-2.1m0 .3c-1 0-1.8.2-1.8 1.8s.7 1.8 1.8 1.8 1.8-.2 1.8-1.8-.7-1.8-1.8-1.8m-.4 2.9v-.9h.6l.5.9.1.1h.3s.1 0 0-.1l-.5-.9c.3-.1.4-.3.4-.6 0-.4-.2-.7-.8-.7h-.9l-.1.1v2.2l.1.1.3-.2m0-1.9h.6c.2 0 .4.1.4.3v.1c0 .1-.1.3-.4.3h-.6v-.7z" class="st0"/>
  </g>
  <g id="Слой_1-2">
    <linearGradient id="SVGID_1_" x1="1.5" x2="39.5" y1="1758.5" y2="1758.5" gradientTransform="translate(0 -1718)" gradientUnits="userSpaceOnUse">
      <stop offset="0" stop-color="#f6a741"/>
      <stop offset="1" stop-color="#fddf3c"/>
    </linearGradient>
    <circle cx="20.5" cy="40.5" r="19" fill="url(#SVGID_1_)"/>
    <linearGradient id="SVGID_2_" x1="6.3" x2="33.8" y1="1748.4" y2="1741.1" gradientTransform="translate(0 -1718)" gradientUnits="userSpaceOnUse">
      <stop offset="0" stop-color="#1e0f00"/>
      <stop offset=".3" stop-color="#211204"/>
      <stop offset=".6" stop-color="#291d10"/>
      <stop offset=".9" stop-color="#372e23"/>
      <stop offset="1" stop-color="#40382f"/>
    </linearGradient>
    <path fill="url(#SVGID_2_)" d="M35.2 28.5a19 19 0 00-29.4 0h29.4z"/>
    <linearGradient id="SVGID_3_" x1="7.2" x2="34.7" y1="1775.9" y2="1768.6" gradientTransform="translate(0 -1718)" gradientUnits="userSpaceOnUse">
      <stop offset="0" stop-color="#1e0f00"/>
      <stop offset=".3" stop-color="#211204"/>
      <stop offset=".6" stop-color="#291d10"/>
      <stop offset=".9" stop-color="#372e23"/>
      <stop offset="1" stop-color="#40382f"/>
    </linearGradient>
    <path fill="url(#SVGID_3_)" d="M5.8 52.5a19 19 0 0029.4 0H5.8z"/>
    <linearGradient id="SVGID_4_" x1="2.1" x2="38.8" y1="1763.4" y2="1753.6" gradientTransform="translate(0 -1718)" gradientUnits="userSpaceOnUse">
      <stop offset="0" stop-color="#1e0f00"/>
      <stop offset=".3" stop-color="#211204"/>
      <stop offset=".6" stop-color="#291d10"/>
      <stop offset=".9" stop-color="#372e23"/>
      <stop offset="1" stop-color="#40382f"/>
    </linearGradient>
    <path fill="url(#SVGID_4_)" d="M1.5 40.5c0 1.3.2 2.7.4 4H39c.3-1.3.4-2.7.4-4s-.2-2.7-.4-4H1.9c-.2 1.3-.4 2.7-.4 4z"/>
  </g>
</svg>
