<svg xmlns="http://www.w3.org/2000/svg" fill="none" viewBox="0 0 96 24">
  <defs/>
  <path fill="#E30611" fill-rule="evenodd" d="M0 14.53C0 19.25 2.63 24 8.53 24c5.9 0 8.54-4.75 8.54-9.47 0-3.22-1.09-6.92-2.9-9.92C12.43 1.72 10.32 0 8.54 0 6.75 0 4.64 1.72 2.9 4.61c-1.82 3-2.9 6.7-2.9 9.92zM60.58 7.07h-5.97V1.3h18.35v5.78h-5.98v15.64h-6.4V7.07zM86.61 7.07H96V1.3H86.6C78 1.29 73.38 5.59 73.38 12c0 6.4 4.6 10.71 13.23 10.71H96v-5.78H86.6C82.62 16.93 80 15.5 80 12s2.62-4.93 6.61-4.93zM38.18 14.08l3.42-12.8h11.3v21.43h-6.4V5.27l-4.65 17.44h-7.34L29.88 5.28v17.43h-6.4V1.3h11.3l3.41 12.79z" clip-rule="evenodd"/>
</svg>
